<?xml version="1.0" standalone="no"?>
<!DOCTYPE svg PUBLIC "-//W3C//DTD SVG 20010904//EN"
 "http://www.w3.org/TR/2001/REC-SVG-20010904/DTD/svg10.dtd">
<svg version="1.0" xmlns="http://www.w3.org/2000/svg"
 width="980.000000pt" height="986.000000pt" viewBox="0 0 980.000000 986.000000"
 preserveAspectRatio="xMidYMid meet">

<g transform="translate(0.000000,986.000000) scale(0.100000,-0.100000)"
fill="#000000" stroke="none">
<path d="M4200 9850 c-1483 -67 -2718 -378 -3460 -871 -405 -270 -624 -538
-713 -873 l-22 -81 0 -3100 0 -3100 22 -81 c59 -221 163 -394 353 -584 182
-182 410 -339 712 -490 681 -339 1621 -564 2691 -643 l167 -13 0 393 c0 308
-3 393 -12 393 -36 0 -324 22 -468 35 -917 84 -1672 263 -2139 506 -296 154
-488 346 -530 529 -6 27 -11 220 -11 492 l0 447 76 -45 c101 -60 326 -172 455
-227 664 -284 1532 -469 2537 -542 l92 -7 -2 393 -3 394 -125 7 c-702 40
-1446 161 -1940 315 -290 90 -557 208 -730 324 -119 79 -255 213 -297 294 -63
121 -63 125 -61 617 l3 446 115 -65 c666 -375 1605 -626 2730 -727 376 -34
545 -41 1090 -41 668 0 1041 22 1560 91 204 27 579 89 587 97 2 3 7 177 10
387 l6 382 -29 -6 c-236 -48 -735 -108 -1129 -136 -580 -41 -1399 -41 -1990 0
-1610 111 -2719 491 -2928 1001 -21 53 -22 65 -25 522 -2 257 0 467 3 467 3 0
49 -25 102 -56 350 -202 778 -367 1300 -499 1059 -270 2458 -353 3763 -224
1049 103 2006 366 2615 719 49 29 95 54 102 57 11 4 13 -74 13 -413 0 -233 -5
-448 -10 -484 -46 -291 -405 -559 -1019 -760 l-144 -47 279 -245 c153 -135
293 -257 311 -272 l32 -27 113 51 c121 55 263 129 367 192 34 21 65 38 67 38
2 0 4 -172 4 -383 l0 -382 371 -325 c204 -179 382 -333 395 -343 l24 -19 -2
2344 -3 2343 -27 100 c-115 416 -486 783 -1093 1080 -708 346 -1654 562 -2815
640 -269 19 -1064 27 -1340 15z m1330 -800 c1339 -83 2268 -298 2798 -648 342
-226 443 -507 276 -769 -259 -406 -1189 -732 -2459 -862 -983 -101 -2144 -89
-3075 30 -1309 168 -2164 544 -2270 998 -69 298 219 601 785 824 609 241 1494
392 2560 437 258 10 1160 4 1385 -10z"/>
<path d="M7870 2631 l0 -351 -1140 0 -1140 0 0 -790 0 -790 1140 0 1140 0 2
-349 3 -348 955 738 c525 406 956 742 958 747 2 8 -1744 1368 -1900 1480 -17
13 -18 -1 -18 -337z"/>
</g>
</svg>
